<!-- Generated by IcoMoon.io -->
<svg version="1.1" xmlns="http://www.w3.org/2000/svg" width="7" height="10" viewBox="0 0 7 10">
<title>rouble</title>
<path d="M5.82 3.153c0-0.748-0.53-1.25-1.317-1.25h-1.786v2.5h1.786c0.787 0 1.317-0.502 1.317-1.25zM7.143 3.153c0 1.434-1.038 2.439-2.528 2.439h-1.897v0.658h2.818c0.1 0 0.179 0.078 0.179 0.179v0.714c0 0.1-0.078 0.179-0.179 0.179h-2.818v1.071c0 0.1-0.078 0.179-0.179 0.179h-0.932c-0.1 0-0.179-0.078-0.179-0.179v-1.071h-1.25c-0.1 0-0.179-0.078-0.179-0.179v-0.714c0-0.1 0.078-0.179 0.179-0.179h1.25v-0.658h-1.25c-0.1 0-0.179-0.078-0.179-0.179v-0.831c0-0.1 0.078-0.179 0.179-0.179h1.25v-3.51c0-0.1 0.078-0.179 0.179-0.179h3.008c1.49 0 2.528 1.004 2.528 2.439z"></path>
</svg>
